<svg viewBox="0 0 100 100" xmlns="http://www.w3.org/2000/svg">
  <!-- Blue arc outer -->
  <path d="M 20 30 A 35 35 0 0 1 75 20" stroke="#3B5BFF" stroke-width="6" fill="none" stroke-linecap="round"/>
  <path d="M 80 70 A 35 35 0 0 1 25 80" stroke="#3B5BFF" stroke-width="6" fill="none" stroke-linecap="round"/>
  <!-- Black stylized "e" -->
  <path d="M 50 32 C 40 32 32 40 32 50 C 32 60 40 68 50 68 C 57 68 63 64 66 58 L 60 54 C 58 58 54 60 50 60 C 44 60 40 56 40 50 C 40 44 44 40 50 40 L 62 40 L 62 47 L 46 47" stroke="#0A0A0A" stroke-width="5" fill="none" stroke-linecap="round" stroke-linejoin="round"/>
  <!-- Blue accent dot bottom right -->
  <circle cx="72" cy="72" r="4" fill="#3B5BFF"/>
</svg>
